<?xml version="1.0" encoding="UTF-8" standalone="no"?>
<!DOCTYPE svg PUBLIC "-//W3C//DTD SVG 1.1//EN"
 "http://www.w3.org/Graphics/SVG/1.1/DTD/svg11.dtd">
<!-- Generated by graphviz version 2.40.1 (20161225.0304)
 -->
<!-- Title: G Pages: 1 -->
<svg width="1110pt" height="268pt"
 viewBox="0.00 0.00 1110.38 267.98" xmlns="http://www.w3.org/2000/svg" xmlns:xlink="http://www.w3.org/1999/xlink">
<g id="graph0" class="graph" transform="scale(1 1) rotate(0) translate(7.992 259.992)">
<title>G</title>
<polygon fill="#000000" stroke="transparent" points="-7.992,7.992 -7.992,-259.992 1102.3929,-259.992 1102.3929,7.992 -7.992,7.992"/>
<!-- components/app.jsx -->
<g id="node1" class="node">
<title>components/app.jsx</title>
<ellipse fill="none" stroke="#c6c5fe" cx="624.7446" cy="-162" rx="94.647" ry="18"/>
<text text-anchor="middle" x="624.7446" y="-158.8493" font-family="Arial" font-size="14.00" fill="#c6c5fe">components/app.jsx</text>
</g>
<!-- components/forecast&#45;details.jsx -->
<g id="node2" class="node">
<title>components/forecast&#45;details.jsx</title>
<ellipse fill="none" stroke="#c6c5fe" cx="142.7446" cy="-90" rx="142.9896" ry="18"/>
<text text-anchor="middle" x="142.7446" y="-86.8493" font-family="Arial" font-size="14.00" fill="#c6c5fe">components/forecast&#45;details.jsx</text>
</g>
<!-- components/app.jsx&#45;&gt;components/forecast&#45;details.jsx -->
<g id="edge1" class="edge">
<title>components/app.jsx&#45;&gt;components/forecast&#45;details.jsx</title>
<path fill="none" stroke="#757575" d="M550.2248,-150.8684C468.4661,-138.6555 336.7181,-118.9753 245.2543,-105.3127"/>
<polygon fill="#757575" stroke="#757575" points="245.55,-101.8181 235.1427,-103.8022 244.5158,-108.7413 245.55,-101.8181"/>
</g>
<!-- components/forecast&#45;summaries.jsx -->
<g id="node3" class="node">
<title>components/forecast&#45;summaries.jsx</title>
<ellipse fill="none" stroke="#c6c5fe" cx="464.7446" cy="-90" rx="161.6611" ry="18"/>
<text text-anchor="middle" x="464.7446" y="-86.8493" font-family="Arial" font-size="14.00" fill="#c6c5fe">components/forecast&#45;summaries.jsx</text>
</g>
<!-- components/app.jsx&#45;&gt;components/forecast&#45;summaries.jsx -->
<g id="edge2" class="edge">
<title>components/app.jsx&#45;&gt;components/forecast&#45;summaries.jsx</title>
<path fill="none" stroke="#757575" d="M587.6352,-145.3008C565.3864,-135.2888 536.8539,-122.4492 512.8831,-111.6623"/>
<polygon fill="#757575" stroke="#757575" points="514.1593,-108.3986 503.6038,-107.4866 511.2867,-114.7821 514.1593,-108.3986"/>
</g>
<!-- components/location&#45;details.jsx -->
<g id="node4" class="node">
<title>components/location&#45;details.jsx</title>
<ellipse fill="none" stroke="#cfffac" cx="785.7446" cy="-90" rx="141.9099" ry="18"/>
<text text-anchor="middle" x="785.7446" y="-86.8493" font-family="Arial" font-size="14.00" fill="#cfffac">components/location&#45;details.jsx</text>
</g>
<!-- components/app.jsx&#45;&gt;components/location&#45;details.jsx -->
<g id="edge3" class="edge">
<title>components/app.jsx&#45;&gt;components/location&#45;details.jsx</title>
<path fill="none" stroke="#757575" d="M662.0859,-145.3008C684.5558,-135.2521 713.3951,-122.3551 737.5701,-111.5439"/>
<polygon fill="#757575" stroke="#757575" points="739.225,-114.6379 746.9249,-107.3603 736.3673,-108.2478 739.225,-114.6379"/>
</g>
<!-- styles/app.scss -->
<g id="node5" class="node">
<title>styles/app.scss</title>
<ellipse fill="none" stroke="#cfffac" cx="1019.7446" cy="-90" rx="74.813" ry="18"/>
<text text-anchor="middle" x="1019.7446" y="-86.8493" font-family="Arial" font-size="14.00" fill="#cfffac">styles/app.scss</text>
</g>
<!-- components/app.jsx&#45;&gt;styles/app.scss -->
<g id="edge4" class="edge">
<title>components/app.jsx&#45;&gt;styles/app.scss</title>
<path fill="none" stroke="#757575" d="M695.0464,-149.8347C786.9438,-133.9321 936.371,-108.0728 936.7446,-108 942.5856,-106.8617 948.6478,-105.6349 954.7163,-104.3759"/>
<polygon fill="#757575" stroke="#757575" points="955.8307,-107.7182 964.8972,-102.2364 954.3911,-100.8678 955.8307,-107.7182"/>
</g>
<!-- styles/forecast&#45;details.scss -->
<g id="node6" class="node">
<title>styles/forecast&#45;details.scss</title>
<ellipse fill="none" stroke="#cfffac" cx="142.7446" cy="-18" rx="122.6551" ry="18"/>
<text text-anchor="middle" x="142.7446" y="-14.8493" font-family="Arial" font-size="14.00" fill="#cfffac">styles/forecast&#45;details.scss</text>
</g>
<!-- components/forecast&#45;details.jsx&#45;&gt;styles/forecast&#45;details.scss -->
<g id="edge5" class="edge">
<title>components/forecast&#45;details.jsx&#45;&gt;styles/forecast&#45;details.scss</title>
<path fill="none" stroke="#757575" d="M142.7446,-71.8314C142.7446,-64.131 142.7446,-54.9743 142.7446,-46.4166"/>
<polygon fill="#757575" stroke="#757575" points="146.2447,-46.4132 142.7446,-36.4133 139.2447,-46.4133 146.2447,-46.4132"/>
</g>
<!-- components/forecast&#45;summary.jsx -->
<g id="node7" class="node">
<title>components/forecast&#45;summary.jsx</title>
<ellipse fill="none" stroke="#cfffac" cx="450.7446" cy="-18" rx="153.5949" ry="18"/>
<text text-anchor="middle" x="450.7446" y="-14.8493" font-family="Arial" font-size="14.00" fill="#cfffac">components/forecast&#45;summary.jsx</text>
</g>
<!-- components/forecast&#45;summaries.jsx&#45;&gt;components/forecast&#45;summary.jsx -->
<g id="edge6" class="edge">
<title>components/forecast&#45;summaries.jsx&#45;&gt;components/forecast&#45;summary.jsx</title>
<path fill="none" stroke="#757575" d="M461.2118,-71.8314C459.7145,-64.131 457.934,-54.9743 456.27,-46.4166"/>
<polygon fill="#757575" stroke="#757575" points="459.6694,-45.5614 454.3249,-36.4133 452.7981,-46.8975 459.6694,-45.5614"/>
</g>
<!-- styles/forecast&#45;summaries.scss -->
<g id="node8" class="node">
<title>styles/forecast&#45;summaries.scss</title>
<ellipse fill="none" stroke="#cfffac" cx="763.7446" cy="-18" rx="141.827" ry="18"/>
<text text-anchor="middle" x="763.7446" y="-14.8493" font-family="Arial" font-size="14.00" fill="#cfffac">styles/forecast&#45;summaries.scss</text>
</g>
<!-- components/forecast&#45;summaries.jsx&#45;&gt;styles/forecast&#45;summaries.scss -->
<g id="edge7" class="edge">
<title>components/forecast&#45;summaries.jsx&#45;&gt;styles/forecast&#45;summaries.scss</title>
<path fill="none" stroke="#757575" d="M532.5923,-73.6621C578.6782,-62.5645 639.6971,-47.871 687.4692,-36.3673"/>
<polygon fill="#757575" stroke="#757575" points="688.5493,-39.7073 697.452,-33.9634 686.9105,-32.9019 688.5493,-39.7073"/>
</g>
<!-- data/forecast.json -->
<g id="node9" class="node">
<title>data/forecast.json</title>
<ellipse fill="none" stroke="#cfffac" cx="822.7446" cy="-162" rx="85.2929" ry="18"/>
<text text-anchor="middle" x="822.7446" y="-158.8493" font-family="Arial" font-size="14.00" fill="#cfffac">data/forecast.json</text>
</g>
<!-- index.jsx -->
<g id="node10" class="node">
<title>index.jsx</title>
<ellipse fill="none" stroke="#c6c5fe" cx="723.7446" cy="-234" rx="47.3569" ry="18"/>
<text text-anchor="middle" x="723.7446" y="-230.8493" font-family="Arial" font-size="14.00" fill="#c6c5fe">index.jsx</text>
</g>
<!-- index.jsx&#45;&gt;components/app.jsx -->
<g id="edge8" class="edge">
<title>index.jsx&#45;&gt;components/app.jsx</title>
<path fill="none" stroke="#757575" d="M701.7733,-218.0209C688.6303,-208.4624 671.6909,-196.1428 657.0454,-185.4915"/>
<polygon fill="#757575" stroke="#757575" points="658.8794,-182.4976 648.7334,-179.4464 654.7622,-188.1588 658.8794,-182.4976"/>
</g>
<!-- index.jsx&#45;&gt;data/forecast.json -->
<g id="edge9" class="edge">
<title>index.jsx&#45;&gt;data/forecast.json</title>
<path fill="none" stroke="#757575" d="M745.7159,-218.0209C758.8588,-208.4624 775.7983,-196.1428 790.4438,-185.4915"/>
<polygon fill="#757575" stroke="#757575" points="792.727,-188.1588 798.7558,-179.4464 788.6098,-182.4976 792.727,-188.1588"/>
</g>
</g>
</svg>
